#N canvas 123 110 1905 919 10;
#X declare -lib zexy;
#X declare -lib mtl;
#X declare -lib py;
#X declare -lib bark;
#X obj 29 165 helmholtz~ 1024 1;
#X obj 27 134 adc~ 1 2;
#X obj 53 302 nbx 7 14 -1e+37 1e+37 0 0 empty empty empty 0 -8 0 55
-262144 -1 -1 65.2367 256;
#X obj 54 266 median_n;
#X floatatom 69 232 5 0 0 0 - - -;
#X floatatom 988 939 3 0 0 0 - - -;
#X obj 943 887 notein;
#X obj 943 913 stripnote;
#X floatatom 943 938 3 0 0 0 - - -;
#X text 943 863 MIDI IN;
#X floatatom 1070 929 3 0 0 0 - - -;
#X floatatom 1040 928 3 0 0 0 - - -;
#X obj 1049 891 ctlin;
#X obj 943 958 bng 20 250 50 0 empty empty empty 17 7 0 10 -262144
-1 -1;
#X obj 964 702 dac~;
#X obj 1213 8 loadbang;
#X msg 1213 35 \; pd dsp 1 \;;
#N canvas 0 22 450 278 (subpatch) 0;
#X array \$0-spectrum 512 float 2;
#X coords 0 1 512 0 200 140 1;
#X restore 235 861 graph;
#X obj 114 957 spectrum.mmb~ \$0-spectrum;
#X msg 261 935 logfreq 1 \, dbrange -25 25;
#X obj 114 932 *~ 39;
#X obj 261 915 loadbang;
#X floatatom 113 738 5 0 0 1 bandwidth - -;
#X obj 113 757 + 100;
#X obj 113 779 dbtorms;
#X floatatom 113 801 5 0 0 0 - - -;
#X obj 113 820 pack f 20;
#X obj 113 842 line~;
#X obj 43 765 hsl 128 15 0 127 0 0 empty empty frequency -2 -8 0 10
-262144 -1 -1 0 1;
#X obj 40 807 pack f 20;
#X obj 40 829 line~;
#X text 464 837 inlets:;
#X text 476 858 1 (singal)*: signal to be filtered;
#X text 475 875 2 (signal)*: cut-off frequency;
#X text 475 948 outlets:;
#X text 487 912 * Accepts floats too;
#X text 486 969 1 (signal): the filter's output;
#X text 471 965 Alexandros Drymonitis July 2014;
#X text 475 1028 Note: the spectrum projection has been copied from
[filtercoeff.mmb~]'s help patch;
#X obj 64 874 bandPass~;
#X obj 40 785 mtof;
#X text 475 893 3 (signal)*: band width;
#X obj 970 634 hip~ 5;
#X obj 1015 635 hip~ 5;
#X obj 1215 73 import mtl;
#X obj 1135 687 browser;
#X obj 635 515 mtl/compress~ /ip pc;
#X obj 1138 721 cnv 15 200 20 empty empty /compress~/ 2 12 0 8 -258401
-262144 0;
#X obj 1138 744 hsl 100 15 1 10 0 0 /compress~/ratio /compress~/ratio_
ratio 105 7 0 8 -262144 -1 -1 302 1;
#X obj 1138 761 hsl 100 15 -60 0 0 0 /compress~/threshold /compress~/threshold_
threshold 105 7 0 8 -262144 -1 -1 3300 1;
#X obj 1138 780 hsl 100 15 1 300 0 0 /compress~/attack /compress~/attack_
attack 105 7 0 8 -262144 -1 -1 33 1;
#X obj 1138 798 hsl 100 15 5 3000 0 0 /compress~/release /compress~/release_
release 105 7 0 8 -262144 -1 -1 33 1;
#X obj 1138 816 tgl 15 0 /compress~/switch /compress~/switch_ switch
17 7 0 8 -262144 -166441 -1 1 1;
#X obj 1135 837 hsl 100 15 -20 30 0 0 /compress~/gain /compress~/gain_
gain 105 7 0 8 -262144 -1 -1 6200 1;
#X obj 1353 717 loadbang;
#X msg 1361 798 2;
#X msg 1371 838 1;
#X floatatom 1140 857 5 0 0 0 - - -;
#X obj 969 610 mtl/limit~;
#X obj 915 686 vu 15 120 empty empty -1 -8 0 10 -66577 -1 1 0;
#X obj 1051 668 pvu~;
#X obj 1052 690 vu 15 120 empty empty -1 -8 0 10 -66577 -1 1 0;
#X obj 912 663 pvu~;
#X obj 476 4 nbx 6 54 -1e+37 1e+37 0 0 empty empty empty 0 -8 0 55
-262144 -1 -1 64.2172 256;
#X obj 412 3 ii 64.2172;
#X obj 476 64 nbx 6 54 -1e+37 1e+37 0 0 empty empty empty 0 -8 0 55
-262144 -1 -1 68.0357 256;
#X obj 476 124 nbx 6 54 -1e+37 1e+37 0 0 empty empty empty 0 -8 0 55
-262144 -1 -1 72.0814 256;
#X obj 476 184 nbx 6 54 -1e+37 1e+37 0 0 empty empty empty 0 -8 0 55
-262144 -1 -1 76.3675 256;
#X obj 476 244 nbx 6 54 -1e+37 1e+37 0 0 empty empty empty 0 -8 0 55
-262144 -1 -1 80.9086 256;
#X obj 476 304 nbx 6 54 -1e+37 1e+37 0 0 empty empty empty 0 -8 0 55
-262144 -1 -1 85.7197 256;
#X obj 876 4 nbx 6 54 -1e+37 1e+37 0 0 empty empty empty 0 -8 0 55
-262144 -1 -1 90.8168 256;
#X obj 876 64 nbx 6 54 -1e+37 1e+37 0 0 empty empty empty 0 -8 0 55
-262144 -1 -1 96.2171 256;
#X obj 876 124 nbx 6 54 -1e+37 1e+37 0 0 empty empty empty 0 -8 0 55
-262144 -1 -1 101.938 256;
#X obj 876 184 nbx 6 54 -1e+37 1e+37 0 0 empty empty empty 0 -8 0 55
-262144 -1 -1 108 256;
#X obj 876 244 nbx 6 54 -1e+37 1e+37 0 0 empty empty empty 0 -8 0 55
-262144 -1 -1 114.422 256;
#X obj 876 304 nbx 6 54 -1e+37 1e+37 0 0 empty empty empty 0 -8 0 55
-262144 -1 -1 121.226 256;
#X obj 412 62 ii 68.0357;
#X obj 412 123 ii 72.0814;
#X obj 412 184 ii 76.3675;
#X obj 412 242 ii 80.9086;
#X obj 412 302 ii 85.7197;
#X obj 812 3 ii 90.8168;
#X obj 811 62 ii 96.2171;
#X obj 812 123 ii 101.938;
#X obj 812 183 ii 108;
#X obj 812 242 ii 114.422;
#X obj 812 303 ii 121.226;
#X obj 72 204 ii 20;
#X msg 1357 741 1.275;
#X obj 967 661 *~ 0.9;
#X obj 995 681 *~ 0.9;
#X obj 968 467 adc~;
#X floatatom 1099 813 5 0 0 0 - - -;
#X msg 1364 815 15;
#X obj 897 434 vu 15 120 empty empty -1 -8 0 10 -66577 -1 1 0;
#X obj 894 411 pvu~;
#X obj 1072 406 pvu~;
#X obj 1073 428 vu 15 120 empty empty -1 -8 0 10 -66577 -1 1 0;
#X msg 1355 769 -40;
#X obj 1226 471 bng 15 250 50 0 empty empty empty 17 7 0 10 -262144
-1 -1;
#X obj 1228 496 speedlim 100;
#X floatatom 1291 465 5 0 0 0 - - -;
#N canvas 10 79 1905 1000 sampler 0;
#X msg -34 -308 fetch;
#X obj -104 -311 t a;
#X obj -375 -322 pyext search file;
#X obj -370 -114 packel 3;
#X obj -271 -206 list prepend;
#X obj -189 -206 t l;
#X obj -292 -160 list length;
#X obj -325 -138 random;
#X obj -374 -160 t b a;
#X obj -374 -390 loadbang;
#X obj -374 -367 t b b b;
#X obj -104 -353 l2s;
#X msg -104 -331 ext \$1;
#X obj -293 -183 list;
#X msg -316 -37 play;
#X msg -235 -38 pause;
#X msg -370 61 open \$1;
#X msg -276 -38 stop;
#X msg -189 -39 time_seek \$1;
#X obj -210 77 route ready samplerate length cache float bang;
#X obj -210 103 sel 1;
#X obj -152 105 random;
#X obj -210 127 t b b;
#X text -348 -62 READANYSF~ PLAYBACK ANY KIND OF SOUNDFILE;
#X obj -370 106 readanysf~ 2;
#X obj -392 -183 list;
#X floatatom -275 -110 5 0 0 0 - - -;
#X obj -205 -171 loadbang;
#X obj -205 -151 time;
#X msg -206 -130 seed \$1;
#X obj -378 -212 t b b;
#X msg -104 -375 wav;
#X msg -374 -347 set /home/psc/11h11/oreilles/sample/freesound;
#X obj 54 -141 delay 400;
#X obj 54 -162 loadbang;
#X obj -206 -104 t b b b a;
#X obj -367 -254 inlet;
#X obj -371 161 outlet~;
#X obj -272 160 outlet~;
#X obj 254 -334 import py;
#X obj 140 -200 inlet;
#X connect 0 0 2 1;
#X connect 1 0 2 1;
#X connect 2 0 4 0;
#X connect 3 0 16 0;
#X connect 4 0 5 0;
#X connect 4 0 13 1;
#X connect 5 0 4 1;
#X connect 6 0 7 1;
#X connect 7 0 3 1;
#X connect 7 0 26 0;
#X connect 8 0 7 0;
#X connect 8 1 3 0;
#X connect 9 0 10 0;
#X connect 10 0 0 0;
#X connect 10 1 32 0;
#X connect 10 2 31 0;
#X connect 11 0 12 0;
#X connect 12 0 1 0;
#X connect 13 0 6 0;
#X connect 13 0 8 0;
#X connect 14 0 24 0;
#X connect 15 0 24 0;
#X connect 16 0 24 0;
#X connect 17 0 24 0;
#X connect 18 0 24 0;
#X connect 19 0 20 0;
#X connect 19 2 21 1;
#X connect 20 0 22 0;
#X connect 21 0 18 0;
#X connect 22 0 14 0;
#X connect 22 1 21 0;
#X connect 24 0 37 0;
#X connect 24 1 38 0;
#X connect 24 2 19 0;
#X connect 27 0 28 0;
#X connect 28 3 29 0;
#X connect 29 0 35 0;
#X connect 30 0 13 0;
#X connect 30 1 13 0;
#X connect 30 1 33 0;
#X connect 31 0 11 0;
#X connect 32 0 2 1;
#X connect 33 0 17 0;
#X connect 34 0 33 0;
#X connect 35 0 7 0;
#X connect 35 1 7 0;
#X connect 35 2 7 0;
#X connect 35 3 7 0;
#X connect 36 0 30 0;
#X connect 40 0 33 1;
#X restore 1235 528 pd sampler;
#X obj 1499 571 noteout;
#X obj 1474 428 speedlim 100;
#X floatatom 1537 397 5 0 0 0 - - -;
#X floatatom 1340 491 5 0 0 0 - - -;
#X obj 1339 412 tgl 15 0 empty empty empty 0 -6 0 8 -262144 -1 -1 1
1;
#X obj 1502 322 tgl 60 0 empty empty empty 17 7 0 10 -262144 -1 -1
0 1;
#X obj 1474 406 spigot;
#X obj 1337 457 drunk 10;
#X obj 1340 434 metro 250;
#X obj 1336 387 loadbang;
#X obj 1215 93 import bark;
#X obj 1287 168 bark~;
#X obj 1300 203 bng 15 250 50 0 empty empty empty 17 7 0 10 -262144
-1 -1;
#X obj 1332 200 bng 15 250 50 0 empty empty empty 17 7 0 10 -262144
-1 -1;
#X obj 1365 200 bng 15 250 50 0 empty empty empty 17 7 0 10 -262144
-1 -1;
#X floatatom 1263 233 5 0 0 0 - - -;
#X floatatom 1317 231 5 0 0 0 - - -;
#X floatatom 1361 238 5 0 0 0 - - -;
#X obj 1356 281 moses 0.2;
#X obj 1351 332 t b;
#X obj 1489 457 random 1;
#X obj 1498 540 makenote 127 2000;
#X obj 1490 219 round;
#X obj 172 203 iir 3;
#X obj 1501 514 f;
#X obj 1514 485 t b;
#X floatatom 1403 560 5 0 0 0 - - -;
#X obj 1577 500 + 40;
#X obj 1491 195 ftom;
#X obj 1570 283 + 12;
#X obj 1581 473 * 200;
#X obj 1248 337 tgl 60 0 empty empty empty 17 7 0 10 -262144 -1 -1
0 1;
#X obj 1220 421 spigot;
#X obj 1244 305 loadbang;
#X text 423 207 *;
#X obj 1588 146 vu 15 120 empty empty -1 -8 0 10 -66577 -1 1 0;
#X obj 1585 123 pvu~;
#X obj 1763 118 pvu~;
#X obj 1764 140 vu 15 120 empty empty -1 -8 0 10 -66577 -1 1 0;
#X obj 1631 69 adc~ 11 12;
#X floatatom 1709 545 5 0 0 0 - - -;
#X obj 1709 589 ctlout 44 1;
#X obj 1708 811 pgmout 1;
#X floatatom 1701 742 5 0 0 0 - - -;
#X obj 1701 716 ii 49;
#X obj 1750 759 delay 5000;
#X obj 1711 787 f;
#X obj 1752 740 t b;
#X obj 1751 717 loadbang;
#X obj 1679 491 sel 0 1 2 3;
#X msg 1677 516 76;
#X msg 1775 517 64;
#X obj 1660 405 random 3;
#X obj 1659 429 round;
#X floatatom 1693 303 5 0 0 0 - - -;
#X obj 1692 224 tgl 15 0 empty empty empty 0 -6 0 8 -262144 -1 -1 1
1;
#X obj 1690 269 drunk 10;
#X obj 1693 246 metro 250;
#X obj 1689 199 loadbang;
#X obj 1697 353 + 50;
#X obj 1658 381 metro 1000;
#X obj 1656 358 tgl 15 0 empty empty empty 17 7 0 10 -262144 -1 -1
1 1;
#X obj 1696 329 * 200;
#X msg 1706 516 64;
#X msg 1732 515 64;
#X obj 1237 552 *~ 0.2;
#X obj 1291 553 *~ 0.2;
#X msg 1366 868 10;
#X obj 1344 541 + 5;
#X obj 1343 516 * 7;
#X obj 1216 113 browser;
#X floatatom 1379 638 5 0 0 0 - - -;
#X obj 1431 760 metro 400;
#X obj 1431 740 tgl 15 0 empty empty empty 17 7 0 10 -262144 -1 -1
0 1;
#X obj 1431 782 t b;
#X msg 1431 805 49;
#X floatatom 1479 732 5 0 0 0 - - -;
#X obj 1530 761 metro 400;
#X obj 1530 741 tgl 15 0 empty empty empty 17 7 0 10 -262144 -1 -1
0 1;
#X obj 1530 783 t b;
#X floatatom 1578 733 5 0 0 0 - - -;
#X msg 1530 805 58;
#X obj 1624 756 metro 400;
#X obj 1624 736 tgl 15 0 empty empty empty 17 7 0 10 -262144 -1 -1
0 1;
#X obj 1624 778 t b;
#X floatatom 1672 728 5 0 0 0 - - -;
#X msg 1624 800 56;
#X obj 726 581 mtl/wavedistort~ /id wavedistort;
#X obj 644 416 env~;
#X obj 393 494 pvu~;
#X floatatom 625 451 5 0 0 0 - - -;
#X floatatom 71 487 5 0 1 1 Normalized - -;
#X floatatom 197 452 5 0 0 1 Min - -;
#X floatatom 298 397 5 0 0 1 Max - -;
#X obj 200 479 hsl 128 15 0 127 0 0 empty empty empty -2 -6 0 8 -1
-262144 -1 7038 1;
#X obj 301 423 hsl 128 15 0 127 0 0 empty empty empty -2 -6 0 8 -1
-262144 -1 7781 1;
#X obj 71 512 hsl 128 15 0 1 0 0 empty empty empty -2 -6 0 8 -1 -262144
-1 3164 1;
#X obj 357 352 bng 15 250 50 0 empty empty empty 0 -6 0 8 -262144 -1
-1;
#X obj 58 365 mtl/scaleSmart 1000 10000;
#X obj 588 523 bng 15 250 50 0 empty empty empty 0 -6 0 8 -262144 -1
-1;
#X floatatom 440 607 9 0 0 0 - - -;
#X obj 388 519 * -1;
#X obj 442 587 mtl/round;
#X text 390 470 better to use katja pitchshift env fol;
#X obj 248 526 maxlib/scale 0 1 0 3;
#X obj 260 555 mtl/round;
#X msg 168 656 outled \$1;
#X obj 174 635 hsl 128 15 0 4095 0 0 empty empty empty -2 -8 0 10 -262144
-1 -1 2980 1;
#X obj 319 635 hsl 128 15 0 4095 0 0 empty empty empty -2 -8 0 10 -262144
-1 -1 7424 1;
#X msg 313 656 midled \$1;
#X obj 466 632 hsl 128 15 0 4095 0 0 empty empty empty -2 -8 0 10 -262144
-1 -1 6700 1;
#X msg 458 654 inled \$1;
#X obj 332 685 hsl 128 15 0 4095 0 0 empty empty empty -2 -8 0 10 -262144
-1 -1 10693 1;
#X msg 318 709 blueled \$1;
#X obj 186 592 demultiplex 1 2 3 4;
#X obj 41 579 clip 0 4095;
#X obj 41 601 mtl/round;
#X obj 432 562 clip 0 3;
#X floatatom 380 547 5 0 0 0 - - -;
#X obj 430 539 maxlib/scale 0 40 0 3;
#X obj 45 661 line 0 10;
#X obj 451 426 mtl/scaleSmart 1000 10000;
#X floatatom 459 455 5 0 0 0 - - -;
#X obj 469 502 hsl 128 15 0 1 0 0 empty empty empty -2 -6 0 8 -1 -262144
-1 7440 1;
#X obj 283 797 phimatics;
#X msg 45 632 \$1 10;
#X msg 563 734 inled \$1;
#X msg 557 686 blueled \$1;
#X msg 535 710 allled \$1;
#X obj 51 556 maxlib/scale 0 1 5 0;
#X connect 0 1 126 0;
#X connect 1 0 0 0;
#X connect 1 1 0 0;
#X connect 3 0 2 0;
#X connect 3 0 131 0;
#X connect 4 0 3 1;
#X connect 6 0 7 0;
#X connect 6 1 7 1;
#X connect 7 0 8 0;
#X connect 7 1 5 0;
#X connect 8 0 13 0;
#X connect 12 0 11 0;
#X connect 12 1 10 0;
#X connect 15 0 16 0;
#X connect 19 0 18 1;
#X connect 20 0 18 0;
#X connect 21 0 19 0;
#X connect 22 0 23 0;
#X connect 23 0 24 0;
#X connect 24 0 25 0;
#X connect 25 0 26 0;
#X connect 26 0 27 0;
#X connect 27 0 39 2;
#X connect 28 0 40 0;
#X connect 29 0 30 0;
#X connect 30 0 39 1;
#X connect 39 0 20 0;
#X connect 39 0 190 0;
#X connect 40 0 29 0;
#X connect 42 0 62 0;
#X connect 42 0 89 0;
#X connect 43 0 60 0;
#X connect 43 0 90 0;
#X connect 46 0 39 0;
#X connect 46 0 190 0;
#X connect 46 1 190 1;
#X connect 51 0 92 0;
#X connect 53 0 57 0;
#X connect 54 0 88 0;
#X connect 54 0 98 0;
#X connect 54 0 55 0;
#X connect 54 0 93 0;
#X connect 54 0 56 0;
#X connect 54 0 170 0;
#X connect 55 0 50 0;
#X connect 56 0 52 0;
#X connect 58 0 42 0;
#X connect 58 1 43 0;
#X connect 60 0 61 0;
#X connect 62 0 59 0;
#X connect 64 0 63 0;
#X connect 76 0 65 0;
#X connect 77 0 66 0;
#X connect 78 0 67 0;
#X connect 79 0 68 0;
#X connect 80 0 69 0;
#X connect 81 0 70 0;
#X connect 82 0 71 0;
#X connect 83 0 72 0;
#X connect 84 0 73 0;
#X connect 85 0 74 0;
#X connect 86 0 75 0;
#X connect 87 0 4 0;
#X connect 88 0 48 0;
#X connect 89 0 14 0;
#X connect 90 0 14 1;
#X connect 91 0 46 0;
#X connect 91 0 46 1;
#X connect 91 0 95 0;
#X connect 91 0 96 0;
#X connect 91 0 114 0;
#X connect 91 0 191 0;
#X connect 91 0 192 0;
#X connect 91 1 46 1;
#X connect 91 1 46 0;
#X connect 91 1 96 0;
#X connect 91 1 95 0;
#X connect 93 0 51 0;
#X connect 95 0 94 0;
#X connect 96 0 97 0;
#X connect 98 0 49 0;
#X connect 99 0 100 0;
#X connect 100 0 102 0;
#X connect 101 0 100 1;
#X connect 102 0 168 0;
#X connect 102 1 169 0;
#X connect 104 0 123 0;
#X connect 105 0 104 1;
#X connect 106 0 133 0;
#X connect 106 0 172 0;
#X connect 107 0 111 0;
#X connect 108 0 109 1;
#X connect 109 0 104 0;
#X connect 110 0 106 0;
#X connect 111 0 110 0;
#X connect 112 0 107 0;
#X connect 114 0 115 0;
#X connect 114 0 118 0;
#X connect 114 1 116 0;
#X connect 114 1 119 0;
#X connect 114 2 117 0;
#X connect 114 2 120 0;
#X connect 114 2 121 0;
#X connect 121 1 122 0;
#X connect 122 0 135 0;
#X connect 122 0 109 0;
#X connect 123 0 128 0;
#X connect 124 0 103 0;
#X connect 124 1 103 1;
#X connect 125 0 132 0;
#X connect 126 0 3 0;
#X connect 128 0 127 0;
#X connect 130 0 124 2;
#X connect 131 0 125 0;
#X connect 132 0 127 1;
#X connect 133 0 130 0;
#X connect 134 0 135 1;
#X connect 135 0 99 0;
#X connect 139 0 138 0;
#X connect 140 0 141 0;
#X connect 142 0 139 0;
#X connect 142 0 58 0;
#X connect 142 1 140 0;
#X connect 142 1 58 1;
#X connect 143 0 144 0;
#X connect 146 0 149 1;
#X connect 147 0 146 0;
#X connect 148 0 149 0;
#X connect 149 0 145 0;
#X connect 150 0 148 0;
#X connect 151 0 150 0;
#X connect 152 0 153 0;
#X connect 152 1 166 0;
#X connect 152 2 167 0;
#X connect 152 3 154 0;
#X connect 153 0 143 0;
#X connect 154 0 143 0;
#X connect 155 0 156 0;
#X connect 156 0 152 0;
#X connect 157 0 165 0;
#X connect 158 0 160 0;
#X connect 159 0 157 0;
#X connect 160 0 159 0;
#X connect 161 0 158 0;
#X connect 161 0 164 0;
#X connect 162 0 163 1;
#X connect 163 0 155 0;
#X connect 164 0 163 0;
#X connect 165 0 162 0;
#X connect 166 0 143 0;
#X connect 167 0 143 0;
#X connect 168 0 58 0;
#X connect 169 0 58 1;
#X connect 170 0 53 0;
#X connect 171 0 102 1;
#X connect 171 0 129 0;
#X connect 172 0 171 0;
#X connect 174 0 124 0;
#X connect 175 0 177 0;
#X connect 176 0 175 0;
#X connect 177 0 178 0;
#X connect 178 0 124 0;
#X connect 179 0 175 1;
#X connect 180 0 182 0;
#X connect 181 0 180 0;
#X connect 182 0 184 0;
#X connect 183 0 180 1;
#X connect 184 0 124 0;
#X connect 185 0 187 0;
#X connect 186 0 185 0;
#X connect 187 0 189 0;
#X connect 188 0 185 1;
#X connect 189 0 124 0;
#X connect 190 0 58 0;
#X connect 190 1 58 1;
#X connect 191 0 193 0;
#X connect 191 0 201 0;
#X connect 192 0 204 0;
#X connect 194 0 199 0;
#X connect 195 0 197 0;
#X connect 196 0 198 0;
#X connect 200 0 201 1;
#X connect 201 0 194 0;
#X connect 201 0 232 0;
#X connect 201 1 195 0;
#X connect 201 2 196 0;
#X connect 203 0 217 1;
#X connect 204 0 221 0;
#X connect 204 0 222 0;
#X connect 204 0 224 0;
#X connect 205 0 203 0;
#X connect 207 0 208 0;
#X connect 208 0 217 1;
#X connect 209 0 227 0;
#X connect 210 0 209 0;
#X connect 211 0 212 0;
#X connect 212 0 227 0;
#X connect 213 0 214 0;
#X connect 214 0 227 0;
#X connect 215 0 216 0;
#X connect 216 0 227 0;
#X connect 217 0 213 0;
#X connect 217 1 211 0;
#X connect 217 2 210 0;
#X connect 217 3 215 0;
#X connect 218 0 219 0;
#X connect 219 0 228 0;
#X connect 220 0 205 0;
#X connect 222 0 220 0;
#X connect 224 0 225 0;
#X connect 225 0 226 0;
#X connect 228 0 223 0;
#X connect 229 0 227 0;
#X connect 231 0 227 0;
#X connect 232 0 218 0;
