#N canvas 736 162 942 691 10;
#X declare -lib mtl;
#X declare -lib cyclone;
#X declare -lib maxlib;
#X declare -lib pdmtl;
#X declare -lib py;
#X declare -lib mrpeach;
#X obj -245 294 mtl/limit~;
#X obj -247 12 cnv 15 79 21 empty empty AUDIO 0 12 0 20 -1 -262144
0;
#N canvas 149 442 450 300 guts 0;
#X obj 351 11 import mtl;
#X obj 351 31 import cyclone;
#X obj 351 51 import maxlib;
#X obj 351 73 import pdmtl;
#X obj 18 30 loadbang;
#X msg 18 58 \; pd dsp 1 \;;
#X obj 352 96 import py;
#X connect 4 0 5 0;
#X restore 364 42 pd guts;
#X obj 365 84 tof/param gui;
#X obj 365 66 bng 15 250 50 0 empty empty empty 17 7 0 10 -262144 -1
-1;
#X obj -245 272 mtl/compress~ /id compress;
#X obj -79 292 tgl 15 0 /compress/switch /compress/switch_ /compress/switch
17 7 0 8 -262144 -166441 -1 1 1;
#X obj -166 310 hsl 100 15 -20 30 0 0 /compress/gain /compress/gain_
/compress/gain 105 7 0 8 -262144 -1 -1 6600 1;
#X obj -79 272 iemlib/init 1;
#X obj -215 323 *~ 1;
#X obj -246 323 *~ 1;
#X obj 365 21 mtl/browser;
#X obj -246 348 dac~;
#N canvas 194 225 525 517 patchrepo 0;
#X obj 369 27 import mrpeach;
#X obj 97 100 unpackOSC;
#X obj 98 126 pipelist;
#X msg 207 101 port 9998;
#X obj 207 38 loadbang;
#X obj 92 69 udpreceive 9998;
#X obj 207 60 delay 8000;
#X obj 207 82 t b;
#X obj 31 162 print;
#X obj 98 181 s \$0-piano;
#X obj 173 180 t a a;
#X obj 200 201 symbol;
#X obj 200 221 pack s \$0;
#X obj 173 264 list split 1;
#X obj 207 286 send;
#X msg 200 243 symbol \$2-\$1;
#X obj 98 147 routeOSC /piano /kfx /radio2 /nbvisitor /chat;
#X obj 278 186 s \$0-nbvisitor;
#X obj 374 207 s \$0-chat;
#X obj 374 186 l2s;
#X obj 271 221 s \$0-random;
#X connect 1 0 2 0;
#X connect 1 1 2 1;
#X connect 2 0 8 0;
#X connect 2 0 16 0;
#X connect 3 0 5 0;
#X connect 4 0 6 0;
#X connect 5 0 1 0;
#X connect 6 0 7 0;
#X connect 7 0 3 0;
#X connect 10 0 13 0;
#X connect 10 1 11 0;
#X connect 11 0 12 0;
#X connect 12 0 15 0;
#X connect 13 1 14 0;
#X connect 15 0 14 1;
#X connect 16 0 9 0;
#X connect 16 1 10 0;
#X connect 16 2 20 0;
#X connect 16 3 17 0;
#X connect 16 4 19 0;
#X connect 19 0 18 0;
#X restore 366 349 pd patchrepo;
#X obj -85 12 adc~ 1 2;
#N canvas 251 112 450 300 pianoNode2Midi 0;
#X obj 5 37 r \$0-piano;
#X floatatom -32 82 5 0 0 0 - - -;
#X obj 279 40 noteout;
#X obj 9 85 s \$0-midiout;
#X obj 7 62 node2Midi 48;
#X obj 279 13 r \$0-midiout;
#X obj 91 85 s \$0-midiout;
#X obj 91 63 node2Midi 49;
#X obj 176 87 s \$0-midiout;
#X obj 261 88 s \$0-midiout;
#X obj 28 138 s \$0-midiout;
#X obj 110 138 s \$0-midiout;
#X obj 195 140 s \$0-midiout;
#X obj 280 141 s \$0-midiout;
#X obj 34 185 s \$0-midiout;
#X obj 116 185 s \$0-midiout;
#X obj 201 187 s \$0-midiout;
#X obj 286 188 s \$0-midiout;
#X obj 176 65 node2Midi 50;
#X obj 261 66 node2Midi 51;
#X obj 26 115 node2Midi 52;
#X obj 110 116 node2Midi 53;
#X obj 195 118 node2Midi 54;
#X obj 280 119 node2Midi 55;
#X obj 32 162 node2Midi 56;
#X obj 116 163 node2Midi 57;
#X obj 201 165 node2Midi 58;
#X obj 286 166 node2Midi 59;
#X connect 0 0 1 0;
#X connect 0 0 4 0;
#X connect 0 0 7 0;
#X connect 0 0 18 0;
#X connect 0 0 19 0;
#X connect 0 0 20 0;
#X connect 0 0 21 0;
#X connect 0 0 22 0;
#X connect 0 0 23 0;
#X connect 0 0 24 0;
#X connect 0 0 25 0;
#X connect 0 0 26 0;
#X connect 0 0 27 0;
#X connect 4 0 3 0;
#X connect 5 0 2 0;
#X connect 7 0 6 0;
#X connect 18 0 8 0;
#X connect 19 0 9 0;
#X connect 20 0 10 0;
#X connect 21 0 11 0;
#X connect 22 0 12 0;
#X connect 23 0 13 0;
#X connect 24 0 14 0;
#X connect 25 0 15 0;
#X connect 26 0 16 0;
#X connect 27 0 17 0;
#X restore 336 327 pd pianoNode2Midi;
#X obj -57 85 vu 15 120 empty empty -1 -8 0 10 -66577 -1 1 0;
#X obj -1 62 pvu~;
#X obj 0 84 vu 15 120 empty empty -1 -8 0 10 -66577 -1 1 0;
#N canvas 127 176 540 387 kfx 0;
#X obj 19 15 r \$0-/kfx1;
#X obj 19 55 s /lofi/wet;
#X obj 19 36 maxlib/scale 0 100 0 1;
#X obj 168 34 maxlib/scale 0 100 0 1;
#X obj 316 34 maxlib/scale 0 100 0 1;
#X obj 168 13 r \$0-/kfx2;
#X obj 316 12 r \$0-/kfx3;
#X obj 19 106 maxlib/scale 0 100 0 1;
#X obj 19 175 maxlib/scale 0 100 0 1;
#X obj 19 245 maxlib/scale 0 100 0 1;
#X obj 316 242 maxlib/scale 0 100 0 1;
#X obj 22 313 maxlib/scale 0 100 0 1;
#X obj 319 311 maxlib/scale 0 100 0 1;
#X obj 19 85 r \$0-/kfx4;
#X obj 168 80 r \$0-/kfx5;
#X obj 316 81 r \$0-/kfx6;
#X obj 19 153 r \$0-/kfx7;
#X obj 169 152 r \$0-/kfx8;
#X obj 336 141 r \$0-/kfx9;
#X obj 21 225 r \$0-/kfx10;
#X obj 168 219 r \$0-/kfx11;
#X obj 316 220 r \$0-/kfx12;
#X obj 23 290 r \$0-/kfx13;
#X obj 171 290 r \$0-/kfx14;
#X obj 319 289 r \$0-/kfx15;
#X obj 170 53 s /lofi/bits;
#X obj 316 53 s /lofi/freq;
#X obj 19 125 s /bufferfx/wet;
#X obj 19 194 s /tremolo/wet;
#X obj 19 264 s /echovd/wet;
#X obj 24 333 s /freeverb/wet;
#X obj 169 103 maxlib/scale 0 100 3 70;
#X obj 168 122 s /bufferfx/length;
#X obj 317 104 maxlib/scale 0 100 30 1000;
#X obj 316 123 s /bufferfx/update;
#X obj 169 172 maxlib/scale 0 100 0.5 25;
#X obj 168 191 s /tremolo/frequency;
#X obj 337 165 maxlib/scale 0 100 2 21;
#X obj 335 183 s /tremolo/shape;
#X obj 168 262 s /echovd/delay;
#X obj 168 242 maxlib/scale 0 100 0 5000;
#X obj 316 261 s /echovd/strength;
#X obj 171 329 s /freeverb/roomsize;
#X obj 325 329 s /freeverb/width;
#X obj 171 311 maxlib/scale 0 100 0.11 0.6;
#X connect 0 0 2 0;
#X connect 2 0 1 0;
#X connect 3 0 25 0;
#X connect 4 0 26 0;
#X connect 5 0 3 0;
#X connect 6 0 4 0;
#X connect 7 0 27 0;
#X connect 8 0 28 0;
#X connect 9 0 29 0;
#X connect 10 0 41 0;
#X connect 11 0 30 0;
#X connect 12 0 43 0;
#X connect 13 0 7 0;
#X connect 14 0 31 0;
#X connect 15 0 33 0;
#X connect 16 0 8 0;
#X connect 17 0 35 0;
#X connect 18 0 37 0;
#X connect 19 0 9 0;
#X connect 20 0 40 0;
#X connect 21 0 10 0;
#X connect 22 0 11 0;
#X connect 23 0 44 0;
#X connect 24 0 12 0;
#X connect 31 0 32 0;
#X connect 33 0 34 0;
#X connect 35 0 36 0;
#X connect 37 0 38 0;
#X connect 40 0 39 0;
#X connect 44 0 42 0;
#X restore 401 305 pd kfx;
#N canvas 62 253 450 300 bypass~ 0;
#X obj 58 20 inlet~;
#X obj 120 20 inlet~;
#X obj 60 224 outlet~;
#X obj 122 224 outlet~;
#X connect 0 0 2 0;
#X connect 1 0 3 0;
#X restore -246 72 pd bypass~;
#X obj -244 247 mtl/reverbFree~ /id freeverb;
#X obj -245 222 mtl/echoVd~ /id echovd;
#X obj -244 166 mtl/bufferfx~ /id bufferfx;
#X obj -245 141 mtl/distoLofi~ /id lofi;
#X obj -245 196 mtl/tremolo2~ /id tremolo;
#X obj -176 44 r~ ml;
#X obj -135 45 r~ mr;
#X obj 383 233 r \$0-random;
#X floatatom 383 256 5 0 0 0 - - -;
#N canvas 222 194 747 491 random 0;
#X msg 250 31 0 2 4 5 7 9 11;
#X text 347 32 major;
#X msg 261 54 0 1 4 5 7 8 11;
#X msg 273 77 0 2 4 6 7 9 10;
#X msg 284 99 0 2 3 5 7 8 11;
#X msg 307 144 0 2 4 6 8 10;
#X msg 317 166 0 2 3 5 6 8 9 11;
#X msg 337 232 0 0.5 1 1.5 2 2.5 3 3.5 4;
#X text 359 54 middle-east-like minor;
#X text 370 78 lydian-dominant (jazzy);
#X text 382 101 harmonic minor;
#X msg 295 122 0 2 3 4 5 6 7 9 10 11;
#X text 433 122 chromatic blues;
#X text 393 146 whole-tones scale;
#X text 425 167 diminished scale;
#X msg 325 188 0 2 4 7 9;
#X text 393 189 pentatonic;
#X text 425 209 pentatonic blues;
#X msg 333 210 0 2 3 4 7 8 9;
#X msg 342 254 0 0.33 0.66 1 1.33 1.66 2;
#X msg 348 277 0 1.5 3 4.5 6 7.5 9 10.5;
#X text 504 230 tests;
#X floatatom 349 302 5 0 0 0 - - -;
#X obj 250 321 mtl/transpose;
#X obj 20 302 mtl/closestNote 0 2 4 7 9;
#X obj 20 235 t b;
#X obj 20 257 iemlib/modulo_counter 14 0;
#X obj 20 158 loadbang;
#X obj 20 187 bng 15 250 50 0 empty empty empty 17 7 0 10 -262144 -1
-1;
#X obj 20 212 mtl/clkSlave 4;
#X obj 542 19 inlet;
#X obj 542 42 sel 0 1 2 3 4;
#X obj 20 328 spigot;
#X obj 544 86 t b;
#X msg 542 109 0;
#X msg 595 108 1;
#X obj 568 87 t b b;
#X obj 20 351 change;
#X obj 20 422 makenote;
#X obj 20 377 t f b b;
#X floatatom 68 398 5 0 0 0 - - -;
#X obj 68 357 loadbang;
#X msg 68 377 1000;
#X msg 39 398 127;
#X obj 20 445 noteout;
#X msg 639 108 1;
#X obj 612 87 t b b;
#X msg 680 108 1;
#X obj 653 87 t b b;
#X obj 20 279 + 48;
#X obj 19 37 mtl/clkMaster 40;
#X connect 0 0 23 0;
#X connect 2 0 23 0;
#X connect 3 0 23 0;
#X connect 4 0 23 0;
#X connect 5 0 23 0;
#X connect 6 0 23 0;
#X connect 7 0 23 0;
#X connect 11 0 23 0;
#X connect 15 0 23 0;
#X connect 18 0 23 0;
#X connect 19 0 23 0;
#X connect 20 0 23 0;
#X connect 22 0 23 1;
#X connect 23 0 24 1;
#X connect 24 0 32 0;
#X connect 25 0 26 0;
#X connect 26 0 49 0;
#X connect 27 0 28 0;
#X connect 28 0 29 0;
#X connect 29 0 25 0;
#X connect 30 0 31 0;
#X connect 31 0 33 0;
#X connect 31 1 36 0;
#X connect 31 2 46 0;
#X connect 31 3 48 0;
#X connect 32 0 37 0;
#X connect 33 0 34 0;
#X connect 34 0 32 1;
#X connect 35 0 32 1;
#X connect 36 0 15 0;
#X connect 36 1 35 0;
#X connect 37 0 39 0;
#X connect 38 0 44 0;
#X connect 38 1 44 1;
#X connect 39 0 38 0;
#X connect 39 1 43 0;
#X connect 39 2 40 0;
#X connect 40 0 38 2;
#X connect 41 0 42 0;
#X connect 42 0 40 0;
#X connect 43 0 38 1;
#X connect 45 0 32 1;
#X connect 46 0 0 0;
#X connect 46 1 45 0;
#X connect 47 0 32 1;
#X connect 48 0 4 0;
#X connect 48 1 47 0;
#X connect 49 0 24 0;
#X restore 383 278 pd random;
#N canvas 527 387 450 300 soundtouch~ 0;
#X obj 2 88 inlet~;
#X obj 14 246 outlet~;
#X obj 150 248 outlet~;
#X obj 28 184 tof/crossfade~ 2;
#X msg 282 167 \$1 5;
#X obj 282 191 line~;
#N canvas 155 190 450 300 soundtouch 0;
#X obj 97 34 inlet~;
#X obj 83 191 outlet~;
#X obj 18 143 soundtouch~ 40;
#N canvas 878 211 603 635 settings 0;
#X obj 381 289 hsl 200 15 10 100 0 0 empty sequence sequence 20 8 0
10 -262144 -260097 -1 0 0;
#X msg 378 335 sequence \$1;
#X floatatom 386 312 5 0 0 0 - - -;
#X obj 381 373 hsl 200 15 10 100 0 0 empty seekwindow seekwindow 20
8 0 10 -262144 -260097 -1 0 0;
#X floatatom 386 396 5 0 0 0 - - -;
#X obj 379 462 hsl 200 15 5 100 0 0 empty overlap overlap 20 8 0 10
-262144 -260097 -1 0 0;
#X floatatom 384 485 5 0 0 0 - - -;
#X obj 324 540 outlet;
#X msg 378 422 seekwindow \$1;
#X msg 376 509 overlap \$1;
#X msg 43 477 \; sequence 40 \; seekwindow 20 \; overlap 10 \;;
#X obj 39 289 cnv 15 300 150 empty empty empty 20 12 0 14 -233017 -66577
0;
#X obj 52 325 hsl 200 15 10 100 0 0 empty empty set 20 8 0 10 -262144
-260097 -1 0 0;
#X floatatom 57 348 5 0 0 0 - - -;
#X msg 49 371 set \$1;
#X text 113 348 all settings at once in the ratio:;
#X text 52 301 range 10 - 100 milliseconds;
#X text 43 50 - sequence: signal grain size;
#X text 43 76 - seekwindow: margin for finding best overlap match;
#X text 43 102 - overlap: overlap size of grains;
#X text 42 451 [soundtouch~] defaults:;
#X text 39 138 You can experiment with these settings according to
your sound material. For easy of use \, the 'set' selector does all
three settings at once in a fixed ratio \, but they can be set individually
as well. Notice that changing settings in runtime can sometimes cause
disproportionate latency in [soundtouch~] \, which is only undone when
you reload the object. Alternatively \, you can initialize [soundtouch~]
with an optional single argument for sequence size \, from which the
other settings are derived in fixed ratio.;
#X text 42 568 Website of the SoundTouch library:;
#X text 41 593 http://www.surina.net/soundtouch/;
#X text 42 9 In Olli Parviainen's SoundTouch library \, these settings
are user-definable in milliseconds:;
#X text 373 540 to [soundtouch~] left inlet;
#X text 112 369 sequence 1;
#X text 112 390 seekwindow 0.5;
#X text 113 410 overlap 0.25;
#X connect 0 0 1 0;
#X connect 0 0 2 0;
#X connect 1 0 7 0;
#X connect 3 0 8 0;
#X connect 3 0 4 0;
#X connect 5 0 9 0;
#X connect 5 0 6 0;
#X connect 8 0 7 0;
#X connect 9 0 7 0;
#X connect 12 0 14 0;
#X connect 12 0 13 0;
#X connect 14 0 7 0;
#X restore 34 121 pd settings;
#X obj 99 87 nbx 3 18 -1e+37 1e+37 0 0 empty \$0-drunkness empty 0
-8 0 16 -1 -262144 -1 0 256;
#X obj 254 25 r \$0-/kfx17;
#X obj 255 49 maxlib/scale -2 2 -24 24;
#X connect 0 0 2 0;
#X connect 2 0 1 0;
#X connect 3 0 2 0;
#X connect 4 0 2 1;
#X connect 5 0 6 0;
#X connect 6 0 4 0;
#X restore 118 124 pd soundtouch;
#X obj 89 90 inlet~;
#N canvas 147 194 450 300 soundtouch 0;
#X obj 97 34 inlet~;
#X obj 83 191 outlet~;
#X obj 18 143 soundtouch~ 40;
#N canvas 878 211 603 635 settings 0;
#X obj 381 289 hsl 200 15 10 100 0 0 empty sequence sequence 20 8 0
10 -262144 -260097 -1 0 0;
#X msg 378 335 sequence \$1;
#X floatatom 386 312 5 0 0 0 - - -;
#X obj 381 373 hsl 200 15 10 100 0 0 empty seekwindow seekwindow 20
8 0 10 -262144 -260097 -1 0 0;
#X floatatom 386 396 5 0 0 0 - - -;
#X obj 379 462 hsl 200 15 5 100 0 0 empty overlap overlap 20 8 0 10
-262144 -260097 -1 0 0;
#X floatatom 384 485 5 0 0 0 - - -;
#X obj 324 540 outlet;
#X msg 378 422 seekwindow \$1;
#X msg 376 509 overlap \$1;
#X msg 43 477 \; sequence 40 \; seekwindow 20 \; overlap 10 \;;
#X obj 39 289 cnv 15 300 150 empty empty empty 20 12 0 14 -233017 -66577
0;
#X obj 52 325 hsl 200 15 10 100 0 0 empty empty set 20 8 0 10 -262144
-260097 -1 0 0;
#X floatatom 57 348 5 0 0 0 - - -;
#X msg 49 371 set \$1;
#X text 113 348 all settings at once in the ratio:;
#X text 52 301 range 10 - 100 milliseconds;
#X text 43 50 - sequence: signal grain size;
#X text 43 76 - seekwindow: margin for finding best overlap match;
#X text 43 102 - overlap: overlap size of grains;
#X text 42 451 [soundtouch~] defaults:;
#X text 39 138 You can experiment with these settings according to
your sound material. For easy of use \, the 'set' selector does all
three settings at once in a fixed ratio \, but they can be set individually
as well. Notice that changing settings in runtime can sometimes cause
disproportionate latency in [soundtouch~] \, which is only undone when
you reload the object. Alternatively \, you can initialize [soundtouch~]
with an optional single argument for sequence size \, from which the
other settings are derived in fixed ratio.;
#X text 42 568 Website of the SoundTouch library:;
#X text 41 593 http://www.surina.net/soundtouch/;
#X text 42 9 In Olli Parviainen's SoundTouch library \, these settings
are user-definable in milliseconds:;
#X text 373 540 to [soundtouch~] left inlet;
#X text 112 369 sequence 1;
#X text 112 390 seekwindow 0.5;
#X text 113 410 overlap 0.25;
#X connect 0 0 1 0;
#X connect 0 0 2 0;
#X connect 1 0 7 0;
#X connect 3 0 8 0;
#X connect 3 0 4 0;
#X connect 5 0 9 0;
#X connect 5 0 6 0;
#X connect 8 0 7 0;
#X connect 9 0 7 0;
#X connect 12 0 14 0;
#X connect 12 0 13 0;
#X connect 14 0 7 0;
#X restore 34 121 pd settings;
#X obj 99 87 nbx 3 18 -1e+37 1e+37 0 0 empty \$0-drunkness empty 0
-8 0 16 -1 -262144 -1 0 256;
#X obj 255 49 maxlib/scale -2 2 -24 24;
#X obj 254 25 r \$0-/kfx18;
#X connect 0 0 2 0;
#X connect 2 0 1 0;
#X connect 3 0 2 0;
#X connect 4 0 2 1;
#X connect 5 0 4 0;
#X connect 6 0 5 0;
#X restore 207 122 pd soundtouch;
#X obj 299 143 maxlib/scale 0 100 0 1;
#X obj 298 119 r \$0-/kfx16;
#X floatatom 354 198 5 0 0 0 - - -;
#X connect 0 0 3 0;
#X connect 0 0 6 0;
#X connect 3 0 1 0;
#X connect 3 1 2 0;
#X connect 4 0 5 0;
#X connect 5 0 3 4;
#X connect 6 0 3 2;
#X connect 7 0 3 1;
#X connect 7 0 8 0;
#X connect 8 0 3 3;
#X connect 9 0 4 0;
#X connect 10 0 9 0;
#X restore -245 95 pd soundtouch~;
#N canvas 464 622 450 300 sinetrack~ 0;
#X obj 8 18 inlet~;
#X obj 168 16 inlet~;
#X obj 14 246 outlet~;
#X obj 150 248 outlet~;
#X obj 18 174 tof/crossfade~ 2;
#X msg 272 157 \$1 5;
#X obj 272 181 line~;
#N canvas 170 294 450 300 martha~ 0;
#X obj 83 38 inlet~;
#X obj 74 240 outlet~;
#X obj 72 126 sigmund~ -npts 4096 -hop 1024 -npeak 18 -maxfreq 15000
tracks;
#N canvas 238 96 1028 809 commands 0;
#X obj 21 562 outlet;
#X obj 346 359 tgl 15 0 empty empty empty 17 7 0 10 -262144 -1 -1 0
1;
#X msg 346 379 dsp-switch \$1;
#X msg 175 226 gliss-range -3 5;
#X text 324 225 Glissando range in semitones;
#X msg 205 256 gliss-onset-delay-range 50 750;
#X msg 225 286 gliss-dur-range 1000 2000;
#X text 460 -50 Internal defaults;
#X msg 255 316 tremolo-rate-range 0.25 5;
#X msg 366 409 amp-thresh 0.1;
#X msg 95 96 attack-time-range 125 250;
#X text 508 409 Amplitude thresh in percent;
#X text 486 369 Turn processing on/off (big oscillator banks are expensive!)
;
#X text 301 94 Attack time range in milliseconds;
#X text 341 125 Release time range in milliseconds;
#X text 444 256 Range for time elapsed before beginning glissandi (ms)
;
#X text 434 286 Glissando duration range in milliseconds;
#X text 459 316 Tremolo range in Hz;
#X text 111 5 Many commands specify a range \, where individual partials
are assigned random values within those bounds. This creates more variety.
Make the lower and upper bounds of any range identical to insist on
a specific value for all partials.;
#X obj 342 480 tgl 15 0 empty empty empty 17 7 0 10 -262144 -1 -1 0
1;
#X msg 342 500 pitch-switch \$1;
#X msg 313 548 pitch-list 57 60 64 67 69 72 74 77;
#X text 579 539 Provide an 8-element MIDI pitch list. Partials found
in the signal will line up with the harmonics of one of these pitches.
;
#X text 474 481 Force partials to harmonic arrangements to sound "pitchy"
no matter what. Specify which pitches using the pitch-list message
below.;
#X msg 302 601 pitch-list 60 60 60 60 60 60 60 60;
#X text 571 596 If you want to force only one pitch \, repeat it 8
times. I'll improve this functionality later (or you can!);
#X msg 115 125 release-time-range 500 2000;
#X msg 28 -74 amp-thresh 0.2 \, attack-time-range 5 10 \, release-time-range
250 500 \, gliss-range 0 0 \, gliss-onset-delay-range 50 750 \, gliss-dur-range
500 2000 \, tremolo-rate-range 0 0 \, pitch-switch 0 \, dsp-switch
1;
#X floatatom 141 162 5 0 0 0 - - -;
#X msg 141 181 transpo \$1;
#X connect 1 0 2 0;
#X connect 2 0 0 0;
#X connect 3 0 0 0;
#X connect 5 0 0 0;
#X connect 6 0 0 0;
#X connect 8 0 0 0;
#X connect 9 0 0 0;
#X connect 10 0 0 0;
#X connect 19 0 20 0;
#X connect 20 0 0 0;
#X connect 21 0 0 0;
#X connect 24 0 0 0;
#X connect 26 0 0 0;
#X connect 27 0 0 0;
#X connect 28 0 29 0;
#X connect 29 0 0 0;
#X restore 161 105 pd commands;
#N canvas 0 22 665 643 presets 0;
#X obj 64 14 inlet;
#X obj 101 518 outlet;
#X msg 200 322 amp-thresh 0.1 \, attack-time-range 125 250 \, release-time-range
2000 4000 \, gliss-range -3 0.5 \, gliss-onset-delay-range 50 750 \,
gliss-dur-range 500 2000 \, tremolo-rate-range 0.25 4 \, pitch-switch
0 \, dsp-switch 1;
#X obj 64 36 select 0 1 2 3;
#X msg 150 252 amp-thresh 0.1 \, attack-time-range 125 250 \, release-time-range
2000 4000 \, gliss-range 0 0 \, gliss-onset-delay-range 50 750 \, gliss-dur-range
500 2000 \, tremolo-rate-range 0.25 10 \, pitch-switch 0 \, dsp-switch
1;
#X msg 63 107 amp-thresh 0.2 \, attack-time-range 5 10 \, release-time-range
250 500 \, gliss-range 0 0 \, gliss-onset-delay-range 50 750 \, gliss-dur-range
500 2000 \, tremolo-rate-range 0 0 \, pitch-switch 0 \, dsp-switch
1;
#X msg 277 454 \; preset-label label Default \;;
#X msg 307 574 \; preset-label label Melting \;;
#X obj 232 421 select 0 1 2 3;
#X msg 287 494 \; preset-label label Pitch-chord \;;
#X msg 100 182 amp-thresh 0.1 \, attack-time-range 10 50 \, release-time-range
125 250 \, gliss-range 0 0 \, tremolo-rate-range 0 0 \, pitch-switch
1 \, pitch-list 48 52 55 57 60 62 64 67 \, dsp-switch 1;
#X msg 297 534 \; preset-label label Smoothed-&-tremolo \;;
#X connect 0 0 3 0;
#X connect 0 0 8 0;
#X connect 2 0 1 0;
#X connect 3 0 5 0;
#X connect 3 1 10 0;
#X connect 3 2 4 0;
#X connect 3 3 2 0;
#X connect 4 0 1 0;
#X connect 5 0 1 0;
#X connect 8 0 6 0;
#X connect 8 1 9 0;
#X connect 8 2 11 0;
#X connect 8 3 7 0;
#X connect 10 0 1 0;
#X restore 235 105 pd presets;
#X obj 235 85 hradio 15 1 0 4 empty empty empty 0 -8 0 10 -262144 -1
-1 0;
#X obj 73 168 martha~ 18 86;
#X obj 302 46 maxlib/scale 1 4 0 3;
#X obj 421 84 mtl/round;
#X obj 301 22 r \$0-/kfx20;
#X connect 0 0 2 0;
#X connect 2 0 6 0;
#X connect 3 0 6 1;
#X connect 4 0 6 1;
#X connect 5 0 4 0;
#X connect 6 0 1 0;
#X connect 7 0 8 0;
#X connect 8 0 5 0;
#X connect 9 0 7 0;
#X restore 137 97 pd martha~;
#N canvas 673 422 450 300 martha~ 0;
#X obj 83 38 inlet~;
#X obj 74 240 outlet~;
#X obj 72 126 sigmund~ -npts 4096 -hop 1024 -npeak 18 -maxfreq 15000
tracks;
#N canvas 238 96 1028 809 commands 0;
#X obj 21 562 outlet;
#X obj 346 359 tgl 15 0 empty empty empty 17 7 0 10 -262144 -1 -1 0
1;
#X msg 346 379 dsp-switch \$1;
#X msg 175 226 gliss-range -3 5;
#X text 324 225 Glissando range in semitones;
#X msg 205 256 gliss-onset-delay-range 50 750;
#X msg 225 286 gliss-dur-range 1000 2000;
#X text 460 -50 Internal defaults;
#X msg 255 316 tremolo-rate-range 0.25 5;
#X msg 366 409 amp-thresh 0.1;
#X msg 95 96 attack-time-range 125 250;
#X text 508 409 Amplitude thresh in percent;
#X text 486 369 Turn processing on/off (big oscillator banks are expensive!)
;
#X text 301 94 Attack time range in milliseconds;
#X text 341 125 Release time range in milliseconds;
#X text 444 256 Range for time elapsed before beginning glissandi (ms)
;
#X text 434 286 Glissando duration range in milliseconds;
#X text 459 316 Tremolo range in Hz;
#X text 111 5 Many commands specify a range \, where individual partials
are assigned random values within those bounds. This creates more variety.
Make the lower and upper bounds of any range identical to insist on
a specific value for all partials.;
#X obj 342 480 tgl 15 0 empty empty empty 17 7 0 10 -262144 -1 -1 0
1;
#X msg 342 500 pitch-switch \$1;
#X msg 313 548 pitch-list 57 60 64 67 69 72 74 77;
#X text 579 539 Provide an 8-element MIDI pitch list. Partials found
in the signal will line up with the harmonics of one of these pitches.
;
#X text 474 481 Force partials to harmonic arrangements to sound "pitchy"
no matter what. Specify which pitches using the pitch-list message
below.;
#X msg 302 601 pitch-list 60 60 60 60 60 60 60 60;
#X text 571 596 If you want to force only one pitch \, repeat it 8
times. I'll improve this functionality later (or you can!);
#X msg 115 125 release-time-range 500 2000;
#X msg 28 -74 amp-thresh 0.2 \, attack-time-range 5 10 \, release-time-range
250 500 \, gliss-range 0 0 \, gliss-onset-delay-range 50 750 \, gliss-dur-range
500 2000 \, tremolo-rate-range 0 0 \, pitch-switch 0 \, dsp-switch
1;
#X floatatom 141 162 5 0 0 0 - - -;
#X msg 141 181 transpo \$1;
#X connect 1 0 2 0;
#X connect 2 0 0 0;
#X connect 3 0 0 0;
#X connect 5 0 0 0;
#X connect 6 0 0 0;
#X connect 8 0 0 0;
#X connect 9 0 0 0;
#X connect 10 0 0 0;
#X connect 19 0 20 0;
#X connect 20 0 0 0;
#X connect 21 0 0 0;
#X connect 24 0 0 0;
#X connect 26 0 0 0;
#X connect 27 0 0 0;
#X connect 28 0 29 0;
#X connect 29 0 0 0;
#X restore 161 105 pd commands;
#N canvas 0 22 665 643 presets 0;
#X obj 64 14 inlet;
#X obj 101 518 outlet;
#X msg 200 322 amp-thresh 0.1 \, attack-time-range 125 250 \, release-time-range
2000 4000 \, gliss-range -3 0.5 \, gliss-onset-delay-range 50 750 \,
gliss-dur-range 500 2000 \, tremolo-rate-range 0.25 4 \, pitch-switch
0 \, dsp-switch 1;
#X obj 64 36 select 0 1 2 3;
#X msg 150 252 amp-thresh 0.1 \, attack-time-range 125 250 \, release-time-range
2000 4000 \, gliss-range 0 0 \, gliss-onset-delay-range 50 750 \, gliss-dur-range
500 2000 \, tremolo-rate-range 0.25 10 \, pitch-switch 0 \, dsp-switch
1;
#X msg 63 107 amp-thresh 0.2 \, attack-time-range 5 10 \, release-time-range
250 500 \, gliss-range 0 0 \, gliss-onset-delay-range 50 750 \, gliss-dur-range
500 2000 \, tremolo-rate-range 0 0 \, pitch-switch 0 \, dsp-switch
1;
#X msg 277 454 \; preset-label label Default \;;
#X msg 307 574 \; preset-label label Melting \;;
#X obj 232 421 select 0 1 2 3;
#X msg 287 494 \; preset-label label Pitch-chord \;;
#X msg 100 182 amp-thresh 0.1 \, attack-time-range 10 50 \, release-time-range
125 250 \, gliss-range 0 0 \, tremolo-rate-range 0 0 \, pitch-switch
1 \, pitch-list 48 52 55 57 60 62 64 67 \, dsp-switch 1;
#X msg 297 534 \; preset-label label Smoothed-&-tremolo \;;
#X connect 0 0 3 0;
#X connect 0 0 8 0;
#X connect 2 0 1 0;
#X connect 3 0 5 0;
#X connect 3 1 10 0;
#X connect 3 2 4 0;
#X connect 3 3 2 0;
#X connect 4 0 1 0;
#X connect 5 0 1 0;
#X connect 8 0 6 0;
#X connect 8 1 9 0;
#X connect 8 2 11 0;
#X connect 8 3 7 0;
#X connect 10 0 1 0;
#X restore 235 105 pd presets;
#X obj 236 84 hradio 15 1 0 4 empty empty empty 0 -8 0 10 -262144 -1
-1 0;
#X obj 73 168 martha~ 18 86;
#X obj 246 36 maxlib/scale 1 4 0 3;
#X obj 245 58 mtl/round;
#X obj 245 12 r \$0-/kfx20;
#X connect 0 0 2 0;
#X connect 2 0 6 0;
#X connect 3 0 6 1;
#X connect 4 0 6 1;
#X connect 5 0 4 0;
#X connect 6 0 1 0;
#X connect 7 0 8 0;
#X connect 8 0 5 0;
#X connect 9 0 7 0;
#X restore 208 96 pd martha~;
#X obj 284 132 maxlib/scale 0 100 0 1;
#X obj 283 108 r \$0-/kfx19;
#X floatatom 290 57 5 0 0 0 - - -;
#X connect 0 0 4 0;
#X connect 0 0 7 0;
#X connect 1 0 4 1;
#X connect 1 0 8 0;
#X connect 4 0 2 0;
#X connect 4 1 3 0;
#X connect 5 0 6 0;
#X connect 6 0 4 4;
#X connect 7 0 4 2;
#X connect 8 0 4 3;
#X connect 9 0 5 0;
#X connect 10 0 9 0;
#X connect 11 0 9 0;
#X restore -244 117 pd sinetrack~;
#X obj -60 62 pvu~;
#X obj 95 18 cnv 15 200 20 empty empty / 2 12 0 8 -258401 -262144 0
;
#X obj 95 41 hsl 100 15 1 10 0 0 /compress/ratio /compress/ratio_ /compress/ratio
105 7 0 8 -262144 -1 -1 0 1;
#X obj 95 59 hsl 100 15 -60 0 0 0 /compress/threshold /compress/threshold_
/compress/threshold 105 7 0 8 -262144 -1 -1 9900 1;
#X obj 95 77 hsl 100 15 1 300 0 0 /compress/attack /compress/attack_
/compress/attack 105 7 0 8 -262144 -1 -1 298 1;
#X obj 95 95 hsl 100 15 5 3000 0 0 /compress/release /compress/release_
/compress/release 105 7 0 8 -262144 -1 -1 512 1;
#X obj 95 113 tgl 15 0 /compress/switch /compress/switch_ /compress/switch
17 7 0 8 -262144 -166441 -1 1 1;
#X obj 95 131 hsl 100 15 -20 30 0 0 /compress/gain /compress/gain_
/compress/gain 105 7 0 8 -262144 -1 -1 6600 1;
#X obj 95 149 hsl 100 15 0 1 0 0 /freeverb/wet /freeverb/wet_ /freeverb/wet
105 7 0 8 -262144 -1 -1 0 1;
#X obj 95 167 hsl 100 15 0 1 0 0 /freeverb/width /freeverb/width_ /freeverb/width
105 7 0 8 -262144 -1 -1 9900 1;
#X obj 95 185 hsl 100 15 0.11 1.6 0 0 /freeverb/roomsize /freeverb/roomsize_
/freeverb/roomsize 105 7 0 8 -262144 -1 -1 1262 1;
#X obj 95 203 tgl 15 0 /freeverb/freeze /freeverb/freeze_ /freeverb/freeze
17 7 0 8 -262144 -166441 -1 0 1;
#X obj 95 221 hsl 100 15 0 2 0 0 /freeverb/damping /freeverb/damping_
/freeverb/damping 105 7 0 8 -262144 -1 -1 1980 1;
#X obj 95 239 hsl 100 15 0 1 0 0 /echovd/wet /echovd/wet_ /echovd/wet
105 7 0 8 -262144 -1 -1 0 1;
#X obj 95 257 hsl 100 15 0 5000 0 0 /echovd/delay /echovd/delay_ /echovd/delay
105 7 0 8 -262144 -1 -1 198 1;
#X obj 95 275 hsl 100 15 0 1 0 0 /echovd/strength /echovd/strength_
/echovd/strength 105 7 0 8 -262144 -1 -1 4950 1;
#X obj 95 293 hsl 100 15 0 1 0 0 /bufferfx/wet /bufferfx/wet_ /bufferfx/wet
105 7 0 8 -262144 -1 -1 0 1;
#X obj 95 311 hsl 100 15 3 70 0 0 /bufferfx/length /bufferfx/length_
/bufferfx/length 105 7 0 8 -262144 -1 -1 0 1;
#X obj 95 329 hsl 100 15 30 1000 0 0 /bufferfx/update /bufferfx/update_
/bufferfx/update 105 7 0 8 -262144 -1 -1 0 1;
#X obj 95 347 hsl 100 15 0 1 0 0 /lofi/wet /lofi/wet_ /lofi/wet 105
7 0 8 -262144 -1 -1 0 1;
#X obj 95 365 hsl 100 15 0 1 0 0 /lofi/freq /lofi/freq_ /lofi/freq
105 7 0 8 -262144 -1 -1 4950 1;
#X obj 95 383 hsl 100 15 0 1 0 0 /lofi/bits /lofi/bits_ /lofi/bits
105 7 0 8 -262144 -1 -1 3960 1;
#X obj 95 401 hsl 100 15 0 1 0 0 /tremolo/wet /tremolo/wet_ /tremolo/wet
105 7 0 8 -262144 -1 -1 0 1;
#X obj 95 419 hsl 100 15 0.5 25 0 0 /tremolo/frequency /tremolo/frequency_
/tremolo/frequency 105 7 0 8 -262144 -1 -1 0 1;
#X obj 95 437 hsl 100 15 2 21 0 0 /tremolo/shape /tremolo/shape_ /tremolo/shape
105 7 0 8 -262144 -1 -1 0 1;
#X obj -150 372 vu 15 120 empty empty -1 -8 0 10 -66577 -1 1 0;
#X obj -94 349 pvu~;
#X obj -93 371 vu 15 120 empty empty -1 -8 0 10 -66577 -1 1 0;
#X obj -153 349 pvu~;
#X connect 0 0 10 0;
#X connect 0 1 9 0;
#X connect 4 0 3 0;
#X connect 5 0 0 0;
#X connect 5 0 61 0;
#X connect 5 1 0 1;
#X connect 5 1 59 0;
#X connect 8 0 6 0;
#X connect 9 0 12 1;
#X connect 10 0 12 0;
#X connect 14 0 33 0;
#X connect 14 0 20 0;
#X connect 14 0 20 1;
#X connect 14 1 17 0;
#X connect 14 1 20 1;
#X connect 14 1 20 0;
#X connect 17 0 18 0;
#X connect 20 0 31 0;
#X connect 20 1 31 1;
#X connect 21 0 5 0;
#X connect 21 1 5 1;
#X connect 22 0 21 0;
#X connect 22 1 21 1;
#X connect 23 0 25 0;
#X connect 23 1 25 1;
#X connect 24 0 23 0;
#X connect 24 1 23 1;
#X connect 25 0 22 0;
#X connect 25 1 22 1;
#X connect 26 0 20 0;
#X connect 27 0 20 1;
#X connect 28 0 29 0;
#X connect 29 0 30 0;
#X connect 31 0 32 0;
#X connect 31 1 32 1;
#X connect 32 0 24 0;
#X connect 32 1 24 1;
#X connect 33 0 16 0;
#X connect 59 0 60 0;
#X connect 61 0 58 0;
